<svg width="44" height="44" viewBox="0 0 44 44" fill="none" xmlns="http://www.w3.org/2000/svg">
<path d="M5.5 17.8516C5.49545 18.1303 5.57573 18.4039 5.73019 18.6359C5.88465 18.868 6.10599 19.0476 6.36488 19.151L19.5662 24.4324L24.8476 37.6351C24.9496 37.8905 25.1259 38.1094 25.3536 38.2635C25.5813 38.4177 25.85 38.5001 26.125 38.5H26.147C26.4255 38.4956 26.6961 38.4067 26.9229 38.2452C27.1498 38.0836 27.3223 37.857 27.4175 37.5952L38.4175 7.34523C38.5075 7.09914 38.5254 6.83244 38.4689 6.57655C38.4125 6.32065 38.2841 6.08622 38.0989 5.90085C37.9137 5.71548 37.6793 5.5869 37.4235 5.53025C37.1676 5.47361 36.9009 5.49125 36.6547 5.5811L6.40475 16.5811C6.1429 16.6766 5.91621 16.8493 5.75465 17.0764C5.5931 17.3035 5.5043 17.5743 5.5 17.853V17.8516Z" fill="#3D3E48"/>
</svg>
