<svg width="44" height="44" viewBox="0 0 44 44" fill="none" xmlns="http://www.w3.org/2000/svg">
<path d="M12.8333 14.6667C11.9167 14.6667 10.0833 15.2167 10.0833 17.4167C10.0833 19.6167 11.9167 20.1667 12.8333 20.1667M3.66666 31.1667V36.6667C3.66666 37.6391 4.05296 38.5718 4.7406 39.2594C5.42823 39.947 6.36086 40.3334 7.33332 40.3334H27.5M3.66666 31.1667V11C3.66666 10.0276 4.05296 9.09493 4.7406 8.4073C5.42823 7.71966 6.36086 7.33335 7.33332 7.33335H12.8333M3.66666 31.1667C6.23882 30.7377 10.3345 30.6295 14.5658 31.6122M27.5 40.3334H33C33.9725 40.3334 34.9051 39.947 35.5927 39.2594C36.2803 38.5718 36.6667 37.6391 36.6667 36.6667V25.6667M27.5 40.3334C24.376 35.2587 19.3838 32.7287 14.5658 31.6122M14.5658 31.6122C16.5733 29.2875 19.5708 27.1205 23.9085 25.6667M18.3333 18.3334V9.16669C18.3333 8.68046 18.5265 8.21414 18.8703 7.87033C19.2141 7.52651 19.6804 7.33335 20.1667 7.33335H22L25.6667 3.66669H33L36.6667 7.33335H38.5C38.9862 7.33335 39.4525 7.52651 39.7964 7.87033C40.1402 8.21414 40.3333 8.68046 40.3333 9.16669V18.3334C40.3333 18.8196 40.1402 19.2859 39.7964 19.6297C39.4525 19.9735 38.9862 20.1667 38.5 20.1667H20.1667C19.6804 20.1667 19.2141 19.9735 18.8703 19.6297C18.5265 19.2859 18.3333 18.8196 18.3333 18.3334Z" stroke="#3D3E48" stroke-width="2" stroke-linecap="round" stroke-linejoin="round"/>
<path d="M29.3333 14.6667C30.3459 14.6667 31.1667 13.8459 31.1667 12.8333C31.1667 11.8208 30.3459 11 29.3333 11C28.3208 11 27.5 11.8208 27.5 12.8333C27.5 13.8459 28.3208 14.6667 29.3333 14.6667Z" stroke="#3D3E48" stroke-width="2" stroke-linecap="round" stroke-linejoin="round"/>
</svg>
