<svg width="45" height="28" viewBox="0 0 45 28" fill="none" xmlns="http://www.w3.org/2000/svg">
<g clip-path="url(#clip0_116_30)">
<path d="M15.9342 27.44C16.1536 27.44 16.3315 27.3749 16.4672 27.244C16.6029 27.1131 16.6708 26.9241 16.6708 26.6756V25.4016C16.6708 25.088 16.6936 24.8136 16.7386 24.5784C16.7836 24.3432 16.839 24.1143 16.9034 23.8924L20.4272 11.207L23.7655 24.206C23.8431 24.4748 23.8992 24.6834 23.9338 24.8325L23.9497 24.9018C23.9822 25.0523 23.9982 25.2189 23.9982 25.4016V26.6756C23.9982 26.9241 24.066 27.1131 24.2017 27.244C24.3374 27.3749 24.5153 27.44 24.7348 27.44H32.1397C32.3467 27.44 32.5205 27.3749 32.6631 27.244C32.805 27.1131 32.8763 26.9241 32.8763 26.6756V25.4016C32.8763 25.1405 32.8922 24.9081 32.9248 24.7058C32.9573 24.5028 33.0182 24.2319 33.1089 23.8924L37.4123 5.0568C37.6193 4.1818 37.9419 3.479 38.3815 2.9498C38.8212 2.4206 39.3252 2.0321 39.8935 1.7836L40.3588 1.568C40.5914 1.4504 40.7562 1.3363 40.8531 1.225C40.95 1.1137 40.9985 0.9667 40.9985 0.784C40.9985 0.5488 40.9175 0.3591 40.7562 0.2156C40.5948 0.0721 40.3525 0 40.0292 0H33.8649C33.5416 0 33.2993 0.0721 33.138 0.2156C32.9767 0.3591 32.8957 0.5488 32.8957 0.784C32.8957 0.9667 32.9372 1.1137 33.0217 1.225C33.1055 1.3363 33.2384 1.4371 33.4191 1.5288L33.8455 1.6856C34.6209 1.9726 35.1408 2.3849 35.406 2.9204C35.6712 3.4559 35.7196 4.0831 35.5514 4.802L31.7195 21.2422L27.2354 3.1752C27.1433 2.7692 27.1177 2.4626 27.1592 2.2582L27.1772 2.1854C27.2416 1.9824 27.3967 1.8424 27.6425 1.764L28.4954 1.5288C28.7024 1.4504 28.854 1.3489 28.9509 1.225C29.0484 1.09942 29.0997 0.943575 29.0963 0.784C29.0963 0.5355 29.0188 0.343 28.8637 0.2058C28.7086 0.0686 28.4691 0 28.1465 0H17.1554C16.8452 0 16.6092 0.0686 16.4478 0.2058C16.2865 0.343 16.2055 0.5355 16.2055 0.784C16.2055 0.9408 16.2471 1.0745 16.3315 1.1858C16.4153 1.2971 16.5545 1.3916 16.7483 1.47L17.5625 1.764C17.7432 1.8291 17.8823 1.9341 17.9792 2.0776C18.0762 2.2211 18.1828 2.5025 18.2991 2.9204L19.5113 7.6398L15.6669 21.2723L11.1655 3.136C11.0638 2.793 11.0312 2.5074 11.0686 2.2799L11.088 2.1854C11.1524 1.9439 11.3144 1.7836 11.5726 1.7052L12.5806 1.47C12.9295 1.3524 13.104 1.1172 13.104 0.7644C13.104 0.5292 13.0265 0.343 12.8714 0.2058C12.7163 0.0686 12.4768 0 12.1542 0H0.930462C0.620308 0 0.387692 0.0686 0.232615 0.2058C0.0775384 0.343 0 0.5292 0 0.7644C0 0.9212 0.0387692 1.0682 0.116308 1.2054C0.193846 1.3426 0.317077 1.4504 0.484615 1.5288L1.33754 1.8032C1.58331 1.8942 1.77023 2.0188 1.89969 2.1756C2.02915 2.3324 2.13854 2.5809 2.22923 2.9204L7.65692 24.206C7.73446 24.507 7.78915 24.7317 7.82169 24.8822C7.85423 25.0327 7.87015 25.2056 7.87015 25.4016V26.6756C7.87015 26.9241 7.94146 27.1131 8.08338 27.244C8.22531 27.3749 8.40669 27.44 8.62615 27.44H15.9342ZM40.0292 27.93C40.8565 27.93 41.5959 27.727 42.2488 27.3224C42.8971 26.9218 43.4315 26.3579 43.7995 25.6858C44.1803 24.9998 44.3714 24.2578 44.3714 23.4612C44.3714 22.6513 44.181 21.9128 43.7995 21.2464C43.4265 20.5884 42.8925 20.0384 42.2488 19.649C41.5959 19.25 40.8565 19.0512 40.0292 19.0512C39.2282 19.0512 38.5013 19.2507 37.8485 19.649C37.2048 20.0384 36.6708 20.5884 36.2977 21.2464C35.9169 21.9128 35.7258 22.6513 35.7258 23.4612C35.7258 24.2585 35.9162 24.9998 36.2977 25.6858C36.6785 26.3718 37.1956 26.9178 37.8485 27.3224C38.5013 27.7277 39.2282 27.93 40.0292 27.93Z" fill="#00001A"/>
</g>
<defs>
<clipPath id="clip0_116_30">
<rect width="45" height="28" fill="white"/>
</clipPath>
</defs>
</svg>
