<svg data-name="Layer 1" viewBox="0 0 32 32" xmlns="http://www.w3.org/2000/svg"><path d="M8 13.64V22a8 8 0 0 0 16 0v-8.36a10.12 10.12 0 0 0 5.68-7.85L30 3.12a1 1 0 0 0-1.77-.75L26.14 5a8.17 8.17 0 0 1-4.37 2.81l-.58.14a8 8 0 0 0-10.38 0l-.58-.14A8.17 8.17 0 0 1 5.86 5L3.78 2.38A1 1 0 0 0 2 3.12l.33 2.66A10.12 10.12 0 0 0 8 13.64ZM16 28a6 6 0 0 1-5.91-5h11.82A6 6 0 0 1 16 28ZM27.5 6.46a8.13 8.13 0 0 1-3.88 5.12 8 8 0 0 0-1-2 10.19 10.19 0 0 0 4.88-3.12ZM22 14v7H10v-7a6 6 0 0 1 12 0ZM9.33 9.6a8 8 0 0 0-1 2A8.13 8.13 0 0 1 4.5 6.46 10.19 10.19 0 0 0 9.33 9.6Z" fill="#df7e8e" class="fill-000000"></path><path d="M14.92 24.62a.57.57 0 0 0-.09-.17l-.12-.16A1 1 0 1 0 15 25a1.26 1.26 0 0 0 0-.2.62.62 0 0 0-.08-.18ZM18.71 24.29a1 1 0 0 0-1.42 0 1.15 1.15 0 0 0-.21.33.83.83 0 0 0-.08.38 1.25 1.25 0 0 0 0 .19.62.62 0 0 0 .06.19.54.54 0 0 0 .09.17 1 1 0 0 0 .12.16l.15.12a.76.76 0 0 0 .18.09l.18.06h.2a1.05 1.05 0 0 0 .71-.29 1 1 0 0 0 .12-.16.56.56 0 0 0 .09-.17.59.59 0 0 0 .06-.19A1.14 1.14 0 0 0 19 25a.85.85 0 0 0-.08-.38 1.15 1.15 0 0 0-.21-.33Z" fill="#df7e8e" class="fill-000000"></path><circle cx="13" cy="15" r="1" fill="#df7e8e" class="fill-000000"></circle><circle cx="19" cy="15" r="1" fill="#df7e8e" class="fill-000000"></circle></svg>